
Release Group: iLL
Container: MKV
Resolution: 1080p
Source Media: Blu Ray
Audio Format: DTS
Audio Channels: 5.1
Audio Bitrate: 1510


When an inexplicable phenomenon transports a modern nuclear warship back in time to the bombing of Pearl Harbor, the crew must decide between allowing the bloody attack to take place and preventing it, which could forever change the course of history. This thrilling science fiction blockbuster features a stellar cast, including Kirk Douglas, Martin Sheen, Charles Durning, Katherine Ross and James Farentino, as the crew and war era government officials who must decide the future of the world.

Cast
Cast overview, first billed only: 
  Kirk Douglas  ...  Capt. Matthew Yelland  
  Martin Sheen  ...  Warren Lasky  
  Katharine Ross  ...  Laurel Scott  
  James Farentino  ...  Wing Commander Richard T. Owens / Richard Tideman  
  Ron O\'Neal  ...  Cmdr. Dan Thurman  
  Charles Durning  ...  Sen. Samuel Chapman  
  Victor Mohica  ...  Black Cloud  
  James Coleman  ...  Lt. Perry (as James C. Lawrence)  
  Soon-Tek Oh  ...  Simura (as Soon-Teck Oh)  
  Joe Lowry  ...  Cmdr. Damon  
  Alvin Ing  ...  Lt. Kajima  
  Mark Thomas  ...  Marine Cpl. Kullman  
  Harold Bergman  ...  Bellman  
  Dan Fitzgerald  ...  Navy Doctor  
  Lloyd Kaufman  ...  Lt. Cmdr. Kaufman  


Complete name : The.Final.Countdown.1980.1080p.BluRay.DTS.x264-iLL.mkv
Format : Matroska
File size : 8.72 GB
Overall bit rate : 12.2 Mbps
Encoded date : UTC 2008-11-11 17:10:39
Writing application : mkvmerge v2.2.0 (\'Turn It On Again' built on Mar 4 2008 12:58:26
Writing library : libebml v0.7.7 + libmatroska v0.8.1

Video

ID : 1
Format : AVC
Format/Info : Advanced Video Codec
Format profile : High@L4.1
Format settings, CABAC : Yes
Format settings, ReFrames : 4 frames
Codec ID : V_MPEG4/ISO/AVC
Bit rate : 10.5 Mbps
Width : 1 920 pixels
Height : 816 pixels
Display aspect ratio : 2.35:1
Frame rate : 23.976 fps
Color space : YUV
Chroma subsampling : 4:2:0
Bit depth : 8 bits
Scan type : Progressive
Bits/(Pixel*Frame) : 0.279
Stream size : 45.2 MiB (86%)
Language : English


Audio

ID : 2
Format : DTS
Format/Info : Digital Theater Systems
Codec ID : A_DTS
Bit rate mode : Constant
Bit rate : 1 510 Kbps
Channel(s) : 6 channels
Channel positions : Front: L C R, Side: L R, LFE
Sampling rate : 48.0 KHz
Bit depth : 24 bits
Video delay : 7ms
Stream size : 6.50 MiB (12%)
Language : English



 
http://www.imagebam.com/image/d8254a118338516
 
http://www.imagebam.com/image/8a41c2118338531
 
http://www.imagebam.com/image/02987d118338545
 
http://www.imagebam.com/image/c21521118338559
 
http://www.imagebam.com/image/2afb30118338569
 
http://www.imagebam.com/image/a1f095118338587